<?xml version="1.0" encoding="UTF-8" standalone="no"?>
<!DOCTYPE svg PUBLIC "-//W3C//DTD SVG 1.1//EN"
"http://www.w3.org/Graphics/SVG/1.1/DTD/svg11.dtd">
<svg viewBox="0 0 935 1210" version="1.1" xmlns="http://www.w3.org/2000/svg" xmlns:xlink="http://www.w3.org/1999/xlink">
<defs>
<clipPath id="c0"><path d="M0,1210V0H935V1210Z"/></clipPath>
<style type="text/css"><![CDATA[
.g0{
fill: #003D73;
}
.g1{
fill: #00315C;
}
.g2{
fill: #FFFFFF;
}
.g3{
fill: none;
stroke: #D5D6D6;
stroke-width: 1.527;
stroke-linecap: butt;
stroke-linejoin: round;
}
]]></style>
</defs>
<path clip-path="url(#c0)" fill-rule="evenodd" d="M0,1161H281V0H0V1161Z" class="g0"/>
<path fill-rule="evenodd" d="M0,172.7H281v-39H0v39Z" class="g1"/>
<path fill-rule="evenodd" d="M0,355.4H281v-39H0v39Z" class="g1"/>
<path fill-rule="evenodd" d="M281.1,433.2H934.9V383.5H281.1v49.7Z" class="g2"/>
<path fill-rule="evenodd" d="M281.1,949H934.9V899.2H281.1V949Z" class="g2"/>
<path clip-path="url(#c0)" fill-rule="evenodd" d="M0,1161H281V0H0V1161Z" class="g0"/>
<path fill-rule="evenodd" d="M0,172.7H281v-39H0v39Z" class="g1"/>
<path fill-rule="evenodd" d="M0,355.4H281v-39H0v39Z" class="g1"/>
<path fill-rule="evenodd" d="M281.1,433.2H934.9V383.5H281.1v49.7Z" class="g2"/>
<path fill-rule="evenodd" d="M281.1,949H934.9V899.2H281.1V949Z" class="g2"/>
<path clip-path="url(#c0)" d="M281.1,384.2H935M281.1,434H935M281.1,900H935M281.1,949.8H935" class="g3"/>
</svg>